<svg width="187" height="262" viewBox="0 0 187 262" fill="none" xmlns="http://www.w3.org/2000/svg">
<path d="M0.688652 279.622C-6.34903 281.482 -10.4649 281.748 -10.4649 281.748L-77.9989 251.79C-77.9989 251.79 -54.7865 236.068 -48.4541 229.836C-42.0703 223.625 -37.2832 219.906 -37.4108 217.143C-37.5383 214.38 -34.442 201.299 -31.4148 195.445C-28.3875 189.591 -18.8255 164.985 -17.9997 162.153C-17.1968 159.372 -15.3706 150.402 -11.4232 145.941C-7.47588 141.479 1.92975 129.844 4.84958 125.48C7.76941 121.116 11.379 115.337 12.7925 112.15C14.2061 108.964 18.2118 106.312 19.7811 105.409C21.4018 104.528 26.7434 101.916 28.6199 99.488C29.0021 99.0425 29.829 97.8716 30.9697 96.4093C35.3557 90.5432 44.082 78.9138 45.6856 78.2105C47.6831 77.3128 54.6123 83.462 52.6972 87.7793L9.8352 184.403C6.68733 191.499 9.88813 199.804 16.9844 202.952L77.1174 229.627C77.1174 229.627 61.2514 244.178 45.9539 255.23C30.6563 266.282 7.72633 277.761 0.688652 279.622Z" fill="black"/>
<path d="M-10.4649 281.748C-10.4649 281.748 -6.34903 281.482 0.688649 279.622C7.72633 277.761 30.6563 266.282 45.9539 255.23C61.2514 244.178 77.1174 229.627 77.1174 229.627L16.9844 202.952C9.88813 199.804 6.68733 191.499 9.8352 184.403L52.6972 87.7793C54.6123 83.462 47.6831 77.3128 45.6856 78.2105C44.082 78.9138 35.3557 90.5432 30.9697 96.4093C29.829 97.8716 29.0021 99.0425 28.6199 99.488C26.7434 101.916 21.4018 104.528 19.7811 105.409C18.2118 106.312 14.2061 108.964 12.7925 112.15C11.379 115.337 7.76941 121.116 4.84958 125.48C1.92975 129.844 -7.47588 141.479 -11.4232 145.941C-15.3706 150.402 -17.1968 159.372 -17.9997 162.153C-18.8255 164.985 -28.3875 189.591 -31.4148 195.445C-34.442 201.299 -37.5383 214.38 -37.4108 217.143C-37.2832 219.906 -42.0703 223.625 -48.4541 229.836C-54.7865 236.068 -77.9989 251.79 -77.9989 251.79" stroke="#E0E4EA" stroke-width="1.12451" stroke-miterlimit="10" stroke-linecap="round"/>
<path d="M23.0723 206.144C23.0723 206.144 21.0375 226.954 10.9294 238.093" stroke="#232323" stroke-width="0.562255" stroke-miterlimit="10" stroke-linecap="round"/>
<path d="M27.6192 144.312C26.0419 147.405 20.4935 158.988 17.0427 163.301" stroke="#232323" stroke-width="0.562255" stroke-linecap="round"/>
<path d="M160.595 71.6703C163.617 64.8578 160.544 56.8855 153.732 53.8635L94.1126 27.4168C87.3002 24.3948 79.3279 27.4676 76.3059 34.28L9.50509 184.869C6.48313 191.682 9.5559 199.654 16.3683 202.676L75.9874 229.123C82.7998 232.145 90.7721 229.072 93.7941 222.26L160.595 71.6703Z" fill="#232323" stroke="#232323" stroke-width="1.12451"/>
<path d="M80.0342 36.5487L13.9173 185.596C11.7138 190.564 13.9544 196.377 18.9218 198.58L77.5129 224.571C82.4803 226.775 88.2934 224.534 90.4969 219.567L156.614 70.5191C158.817 65.5517 156.577 59.7385 151.609 57.535L144.928 54.5711C143.934 54.1304 142.772 54.5786 142.331 55.572L142.103 56.086C141.159 58.2149 138.667 59.1751 136.539 58.2308L102.617 43.1835C100.488 42.2391 99.5282 39.7477 100.473 37.6189L100.701 37.1049C101.141 36.1114 100.693 34.9488 99.6997 34.5081L93.0183 31.5442C88.0509 29.3407 82.2377 31.5813 80.0342 36.5487Z" fill="#6B5AE2" stroke="#232323" stroke-width="0.562255"/>
<path d="M137.442 124.143C137.442 124.143 149.058 129.296 151.521 132.48C154.035 135.686 155.355 138.117 154.58 139.865C153.805 141.612 152.257 148.43 136.939 147.047L132.403 146.388C132.403 146.388 136.319 149.417 137.137 152.425C137.978 155.382 138.722 157.311 137.497 160.765C136.38 163.284 132.043 174.585 130.4 176.07L131.173 179.181C131.866 182.195 129.786 187.854 128.041 190.401C127.228 191.597 124.883 194.248 122.472 196.849C122.472 196.849 123.023 198.939 123.362 201.365C123.701 203.791 123.149 207.114 120.868 210.039C118.586 212.963 113.885 216.906 109.845 219.358C105.776 221.735 103.596 222.491 101.883 221.915C100.478 221.477 97.4326 217.665 96.186 214.652C95.2025 212.432 95.3899 211.039 97.8943 208.582C99.0895 207.423 100.311 206.204 101.533 205.094L105.722 195.651C105.103 192.754 106.09 189.542 108.218 186.836C108.889 185.983 109.832 184.959 110.913 183.949L117.379 169.371L122.623 157.55L127.867 145.729L137.442 124.143Z" fill="black"/>
<path d="M127.867 145.729L136.939 147.047C152.257 148.43 153.805 141.612 154.58 139.865C155.355 138.117 154.035 135.686 151.521 132.48C149.058 129.296 137.442 124.143 137.442 124.143L127.867 145.729ZM127.867 145.729L122.623 157.55L117.379 169.371M132.403 146.388C132.403 146.388 136.319 149.417 137.137 152.425C137.978 155.382 138.722 157.311 137.497 160.765C136.38 163.284 132.043 174.585 130.4 176.07M130.4 176.07C128.757 177.556 126.097 177.729 121.802 174.655C117.581 171.552 117.379 169.371 117.379 169.371M130.4 176.07L131.173 179.181C131.866 182.195 129.786 187.854 128.041 190.401C126.273 193 117.271 202.477 116.079 203.363C114.886 204.249 113.255 205.431 110.547 203.492C108.177 201.764 106.879 199.282 105.855 196.183C105.805 196.007 105.76 195.829 105.722 195.651M117.379 169.371L110.913 183.949M118.203 180.132C117.501 179.636 116.314 180.093 116.314 180.093C113.306 181.466 109.906 184.694 108.218 186.836C106.09 189.542 105.103 192.754 105.722 195.651M122.472 196.849C122.472 196.849 123.023 198.939 123.362 201.365C123.701 203.791 123.149 207.114 120.868 210.039C118.586 212.963 113.885 216.906 109.845 219.358C105.776 221.735 103.596 222.491 101.883 221.915C100.478 221.477 97.4326 217.665 96.186 214.652C95.2025 212.432 95.3899 211.039 97.8943 208.582C99.0895 207.423 100.311 206.204 101.533 205.094M106.087 201.76C104.606 202.473 103.07 203.697 101.533 205.094M105.722 195.651L101.533 205.094" stroke="#E0E4EA" stroke-width="1.12451" stroke-miterlimit="10"/>
<path d="M48.0354 79.0102C49.6063 80.3221 50.7671 83.1129 48.4351 87.1222C46.8728 89.8122 39.0005 98.1298 37.6538 98.9471C36.307 99.7644 34.017 98.6871 32.9149 98.2597L30.5963 97.1082" stroke="#B8B8B8" stroke-width="0.562255" stroke-miterlimit="10"/>
<path d="M101.636 218.305C102.368 219.429 103.915 219.685 105.011 218.879C106.665 217.645 110.027 215.753 111.533 214.576C114.083 212.57 112.665 209.665 111.454 207.959C110.265 206.202 107.907 205.832 106.76 206.061C105.961 206.199 101.624 209.319 99.4105 210.982C98.3891 211.759 98.2017 213.152 98.9046 214.202L101.636 218.305Z" stroke="#B8B8B8" stroke-width="0.562255" stroke-miterlimit="10"/>
<path d="M116.487 185.52C116.487 185.52 111.956 188.8 111.42 189.731C110.862 190.713 108.847 192.342 112.077 197.403C112.888 198.624 113.511 199.577 113.968 200.21C114.505 200.941 115.596 201.117 116.298 200.506C117.992 199.043 121.894 195.238 121.894 195.238C121.894 195.238 125.528 191.622 123.351 188.073C120.219 182.931 118.004 184.04 116.487 185.52Z" stroke="#B8B8B8" stroke-width="0.562255" stroke-miterlimit="10"/>
<path d="M133.206 159.48C132.308 158.036 129.897 155.429 128.477 157.382C127.057 159.336 125.82 161.432 125.615 161.894C125.41 162.357 129.411 169.422 129.869 171.163C130.052 171.859 130.161 172.584 130.19 173.212C130.207 173.589 130.715 173.691 130.875 173.331C131.702 171.607 133.052 168.7 133.514 167.244C134.22 165.097 134.886 162.071 133.206 159.48Z" stroke="#B8B8B8" stroke-width="0.562255" stroke-miterlimit="10"/>
<path d="M70.7643 45.6626C70.6224 45.5996 70.4563 45.6636 70.3934 45.8056L67.8855 51.4591C67.8225 51.601 67.8865 51.7671 68.0285 51.8301L68.7994 52.172L71.5353 46.0046L70.7643 45.6626Z" fill="#6B5AE2" stroke="black" stroke-width="0.562255"/>
<path d="M65.0651 58.5139C64.9232 58.4509 64.7571 58.5149 64.6941 58.6569L59.6784 69.9639C59.6154 70.1059 59.6794 70.2719 59.8214 70.3349L60.5923 70.6769L65.8361 58.8559L65.0651 58.5139Z" fill="#6B5AE2" stroke="black" stroke-width="0.562255"/>
<path d="M148.784 99.9594L148.013 99.6174L138.894 120.176L139.665 120.518C139.807 120.581 139.973 120.517 140.036 120.375L148.927 100.33C148.99 100.188 148.926 100.022 148.784 99.9594Z" fill="#6B5AE2" stroke="black" stroke-width="0.562255"/>
<path d="M57.9968 74.4397C57.8548 74.3767 57.6887 74.4407 57.6258 74.5827L53.2643 84.4147C53.2371 84.476 53.2328 84.5451 53.252 84.6094L53.7181 86.165L58.7677 74.7817L57.9968 74.4397Z" fill="#6B5AE2" stroke="black" stroke-width="0.562255"/>
<rect x="116.692" y="42.6574" width="11.8074" height="1.68677" rx="0.843383" transform="rotate(23.9219 116.692 42.6574)" stroke="black" stroke-width="0.562255"/>
<circle cx="130.998" cy="49.9246" r="0.843383" transform="rotate(23.9219 130.998 49.9246)" stroke="black" stroke-width="0.562255"/>
<path d="M86.2843 110.787L76.8933 91.5414M93.4341 113.959L101.23 96.3845M101.265 117.432L117.308 110.66" stroke="white" stroke-width="4.49804" stroke-linecap="round"/>
<path d="M51.5675 149.16C51.5675 149.16 67.1947 138.04 78.4623 128.947C81.0009 126.899 86.5193 121.807 89.2348 125.789C93.5081 132.056 60.1172 156.524 60.1172 156.524M88.7163 169.211C88.7163 169.211 84.7269 158.376 84.8735 151.236C85.1187 139.293 92.2765 112.372 97.2291 123.383C99.5496 128.542 97.5577 132.132 98.2093 137.707C99.5739 149.382 104.697 167.172 104.697 167.172M61.8689 140.634C61.8689 140.634 49.8849 113.456 55.9617 112.617C60.7364 111.957 70.2664 133.645 70.2664 133.645" stroke="white" stroke-width="4.49804"/>
</svg>
