<svg width="194" height="209" viewBox="0 0 194 209" fill="none" xmlns="http://www.w3.org/2000/svg">
<path d="M222.258 145.455C223.804 151.022 224.055 154.286 224.055 154.286L200.941 208.182C200.941 208.182 188.235 189.913 183.226 184.948C178.234 179.942 175.235 176.179 173.043 176.308C170.851 176.436 160.439 174.107 155.763 171.762C151.087 169.417 131.463 162.069 129.207 161.442C126.992 160.832 119.855 159.47 116.275 156.381C112.695 153.292 103.368 145.941 99.8757 143.667C96.3836 141.392 91.7606 138.584 89.2176 137.493C86.6746 136.403 84.5305 133.249 83.7983 132.013C83.0837 130.735 80.9575 126.521 79.0123 125.055C78.6549 124.757 77.7174 124.112 76.5456 123.221C71.8466 119.797 62.5307 112.985 61.9567 111.719C61.2246 110.143 66.0371 104.583 69.4825 106.06L146.594 139.131C152.257 141.559 158.817 138.937 161.246 133.274L181.826 85.2845C181.826 85.2845 193.532 97.7343 202.454 109.767C211.376 121.8 220.713 139.887 222.258 145.455Z" fill="black"/>
<path d="M224.055 154.286C224.055 154.286 223.804 151.022 222.258 145.455C220.713 139.887 211.376 121.8 202.454 109.767C193.532 97.7343 181.826 85.2845 181.826 85.2845L161.246 133.274C158.817 138.937 152.257 141.559 146.594 139.131L69.4825 106.06C66.0371 104.583 61.2246 110.143 61.9567 111.719C62.5307 112.985 71.8466 119.797 76.5456 123.221C77.7174 124.112 78.6549 124.757 79.0123 125.055C80.9575 126.521 83.0837 130.735 83.7983 132.013C84.5305 133.249 86.6746 136.403 89.2176 137.493C91.7606 138.584 96.3836 141.392 99.8757 143.667C103.368 145.941 112.695 153.292 116.275 156.381C119.855 159.47 126.992 160.832 129.207 161.442C131.463 162.069 151.087 169.417 155.763 171.762C160.439 174.107 170.851 176.436 173.043 176.308C175.235 176.179 178.234 179.942 183.226 184.948C188.235 189.913 200.941 208.182 200.941 208.182" stroke="#E0E4EA" stroke-width="0.89259" stroke-miterlimit="10" stroke-linecap="round"/>
<path d="M163.719 128.41C163.719 128.41 180.256 129.82 189.196 137.734" stroke="#232323" stroke-width="0.446295" stroke-miterlimit="10" stroke-linecap="round"/>
<path d="M114.6 125.409C117.071 126.63 126.319 130.92 129.776 133.617" stroke="#232323" stroke-width="0.446295" stroke-linecap="round"/>
<path d="M55.6388 20.5802C50.2021 18.2487 43.9047 20.7658 41.5731 26.2025L21.1681 73.7818C18.8365 79.2185 21.3537 85.516 26.7904 87.8475L146.969 139.388C152.406 141.719 158.703 139.202 161.035 133.765L181.44 86.1861C183.771 80.7494 181.254 74.452 175.818 72.1204L55.6388 20.5802Z" fill="#232323" stroke="#232323" stroke-width="0.89259"/>
<path d="M28.554 84.8648L147.502 135.877C151.466 137.577 156.058 135.742 157.758 131.778L177.812 85.0187C179.512 81.0544 177.676 76.4626 173.712 74.7624L54.7638 23.75C50.7995 22.0499 46.2077 23.8854 44.5075 27.8496L42.2208 33.1818C41.8808 33.9746 42.2478 34.893 43.0407 35.233L43.4509 35.4089C45.1498 36.1376 45.9364 38.1055 45.2078 39.8045L33.5981 66.8755C32.8695 68.5744 30.9015 69.361 29.2026 68.6324L28.7924 68.4565C27.9996 68.1165 27.0812 68.4836 26.7412 69.2764L24.4544 74.6086C22.7543 78.5728 24.5897 83.1647 28.554 84.8648Z" fill="#F2C94C" stroke="#232323" stroke-width="0.446295"/>
<path d="M97.5097 38.4427C97.5097 38.4427 101.485 29.1729 103.988 27.187C106.508 25.16 108.425 24.088 109.819 24.6861C111.214 25.2842 116.64 26.4458 115.694 38.6171L115.215 42.2239C115.215 42.2239 117.581 39.0864 119.96 38.4072C122.298 37.7104 123.822 37.1013 126.576 38.0396C128.586 38.9016 137.598 42.2323 138.793 43.5218L141.255 42.8778C143.64 42.2983 148.152 43.8933 150.191 45.2534C151.148 45.8872 153.275 47.7221 155.364 49.6101C155.364 49.6101 157.017 49.1521 158.939 48.8595C160.861 48.567 163.504 48.972 165.848 50.754C168.191 52.5361 171.367 56.2288 173.352 59.4113C175.28 62.6173 175.9 64.3403 175.46 65.7056C175.126 66.8248 172.131 69.2795 169.752 70.2986C167.999 71.101 166.892 70.9659 164.917 69.0023C163.986 68.0651 163.006 67.1072 162.113 66.1484L154.577 62.9165C152.284 63.4366 149.725 62.6843 147.556 61.0224C146.873 60.4976 146.051 59.7596 145.238 58.9115L133.604 53.9223L124.171 49.8765L114.737 45.8307L97.5097 38.4427Z" fill="black"/>
<path d="M114.737 45.8307L115.694 38.6171C116.64 26.4458 111.214 25.2842 109.819 24.6861C108.425 24.088 106.508 25.16 103.988 27.187C101.485 29.1729 97.5097 38.4427 97.5097 38.4427L114.737 45.8307ZM114.737 45.8307L124.171 49.8765L133.604 53.9223M115.215 42.2239C115.215 42.2239 117.581 39.0864 119.96 38.4072C122.298 37.7104 123.822 37.1013 126.576 38.0396C128.586 38.9016 137.598 42.2323 138.793 43.5218M138.793 43.5218C139.988 44.8114 140.152 46.9211 137.754 50.3604C135.333 53.7411 133.604 53.9223 133.604 53.9223M138.793 43.5218L141.255 42.8778C143.64 42.2983 148.152 43.8933 150.191 45.2534C152.271 46.631 159.881 53.6826 160.596 54.6204C161.311 55.5582 162.266 56.8418 160.753 59.0097C159.405 60.9081 157.447 61.9624 154.998 62.8057C154.858 62.8475 154.718 62.8844 154.577 62.9165M133.604 53.9223L145.238 58.9115M142.137 53.1626C141.75 53.7251 142.125 54.6628 142.125 54.6628C143.244 57.0364 145.839 59.7034 147.556 61.0224C149.725 62.6843 152.284 63.4366 154.577 62.9165M155.364 49.6101C155.364 49.6101 157.017 49.1521 158.939 48.8595C160.861 48.567 163.504 48.972 165.848 50.754C168.191 52.5361 171.367 56.2288 173.352 59.4113C175.28 62.6173 175.9 64.3403 175.46 65.7056C175.126 66.8248 172.131 69.2795 169.752 70.2986C167.999 71.101 166.892 70.9659 164.917 69.0023C163.986 68.0651 163.006 67.1072 162.113 66.1484M159.422 62.5665C160.003 63.7354 160.989 64.9426 162.113 66.1484M154.577 62.9165L162.113 66.1484" stroke="#E0E4EA" stroke-width="0.89259" stroke-miterlimit="10"/>
<path d="M62.5663 109.843C63.5922 108.583 65.7958 107.634 69.0009 109.446C71.1512 110.66 77.8303 116.826 78.4922 117.887C79.1542 118.948 78.3216 120.776 77.9932 121.655L77.102 123.506" stroke="#B8B8B8" stroke-width="0.446295" stroke-miterlimit="10"/>
<path d="M172.595 65.9328C173.48 65.3412 173.668 64.1106 173.018 63.249C172.022 61.9478 170.487 59.2986 169.538 58.1147C167.921 56.1101 165.629 57.264 164.287 58.2423C162.904 59.203 162.634 61.0782 162.827 61.9866C162.944 62.6195 165.463 66.0307 166.805 67.7715C167.432 68.5745 168.539 68.7096 169.365 68.1413L172.595 65.9328Z" stroke="#B8B8B8" stroke-width="0.446295" stroke-miterlimit="10"/>
<path d="M146.432 54.4718C146.432 54.4718 149.08 58.0354 149.824 58.4516C150.609 58.8855 151.922 60.468 155.907 57.8554C156.869 57.1993 157.619 56.6955 158.117 56.3264C158.691 55.8929 158.82 55.0256 158.328 54.4747C157.151 53.1441 154.093 50.0844 154.093 50.0844C154.093 50.0844 151.187 47.2357 148.391 48.9989C144.341 51.5353 145.243 53.2819 146.432 54.4718Z" stroke="#B8B8B8" stroke-width="0.446295" stroke-miterlimit="10"/>
<path d="M125.597 41.4538C124.46 42.1802 122.414 44.1194 123.979 45.2274C125.543 46.3353 127.219 47.2968 127.588 47.4551C127.957 47.6134 133.525 44.3682 134.902 43.9877C135.453 43.8354 136.027 43.7418 136.525 43.7127C136.824 43.6951 136.901 43.2908 136.613 43.1677C135.237 42.5286 132.916 41.4849 131.756 41.133C130.045 40.5935 127.637 40.0948 125.597 41.4538Z" stroke="#B8B8B8" stroke-width="0.446295" stroke-miterlimit="10"/>
<path d="M35.8787 92.1329C35.8301 92.2462 35.8825 92.3774 35.9958 92.4259L40.5076 94.3609C40.6209 94.4095 40.7521 94.357 40.8007 94.2438L41.0645 93.6285L36.1425 91.5176L35.8787 92.1329Z" fill="#F2C94C" stroke="black" stroke-width="0.446295"/>
<path d="M46.1326 96.5343C46.084 96.6475 46.1364 96.7787 46.2497 96.8273L55.2734 100.697C55.3866 100.746 55.5178 100.693 55.5664 100.58L55.8303 99.9648L46.3964 95.919L46.1326 96.5343Z" fill="#F2C94C" stroke="black" stroke-width="0.446295"/>
<path d="M78.203 29.6729L77.9391 30.2882L94.3458 37.3244L94.6097 36.7091C94.6582 36.5959 94.6058 36.4647 94.4925 36.4161L78.496 29.5558C78.3828 29.5072 78.2516 29.5597 78.203 29.6729Z" fill="#F2C94C" stroke="black" stroke-width="0.446295"/>
<path d="M58.8474 101.986C58.7988 102.099 58.8513 102.23 58.9645 102.279L66.8111 105.644C66.86 105.665 66.9149 105.668 66.9657 105.652L68.1958 105.266L59.1113 101.37L58.8474 101.986Z" fill="#F2C94C" stroke="black" stroke-width="0.446295"/>
<rect x="33.045" y="55.7081" width="9.37219" height="1.33888" rx="0.669442" transform="rotate(-66.7873 33.045 55.7081)" stroke="black" stroke-width="0.446295"/>
<circle cx="38.6741" cy="44.2829" r="0.669442" transform="rotate(-66.7873 38.6741 44.2829)" stroke="black" stroke-width="0.446295"/>
<path d="M87.4179 79.1775L72.235 86.8202M89.8649 73.4715L75.8398 67.4567M92.545 67.2222L87.012 54.5554" stroke="white" stroke-width="3.57036" stroke-linecap="round"/>
<path d="M118.216 106.354C118.216 106.354 109.236 94.0596 101.909 85.2058C100.258 83.2111 96.1622 78.8812 99.2964 76.6868C104.229 73.2335 123.977 99.4953 123.977 99.4953M133.765 76.6716C133.765 76.6716 125.205 79.9445 119.536 79.8983C110.055 79.821 88.6175 74.4044 97.3079 70.3654C101.38 68.4729 104.249 70.0186 108.667 69.4466C117.92 68.2489 131.99 64.0081 131.99 64.0081M111.348 98.2611C111.348 98.2611 89.8944 108.04 89.1683 103.225C88.5977 99.4418 105.718 91.6647 105.718 91.6647" stroke="white" stroke-width="3.57036"/>
</svg>
