<svg width="219" height="88" viewBox="0 0 219 88" fill="none" xmlns="http://www.w3.org/2000/svg">
<mask id="path-1-outside-1_86_162" maskUnits="userSpaceOnUse" x="80.5488" y="25" width="135" height="46" fill="black">
<rect fill="white" x="80.5488" y="25" width="135" height="46"/>
<path d="M89.3529 57.6814C89.3529 58.8133 89.7067 59.8744 90.4141 60.8648C91.1686 61.8552 92.4184 62.3503 94.1633 62.3503H103.006C104.751 62.3503 105.977 61.9259 106.684 61.077C107.439 60.181 107.816 59.167 107.816 58.0351V57.257C107.816 55.0404 109.113 53.9322 111.707 53.9322C114.301 53.9322 115.598 55.0404 115.598 57.257V58.1059C115.598 60.0866 115.268 61.7137 114.607 62.987C113.994 64.2604 113.051 65.3686 111.778 66.3118C109.278 68.1039 106.779 69 104.279 69H92.3948C89.8953 69 87.4665 68.1039 85.1085 66.3118C83.9766 65.3686 83.1042 64.1896 82.4911 62.7748C81.878 61.3128 81.5714 59.6386 81.5714 57.7522V37.591C81.5714 33.771 82.7505 30.9414 85.1085 29.1021C86.2875 28.2532 87.4901 27.5929 88.7163 27.1213C89.9896 26.6026 91.2158 26.3432 92.3948 26.3432H104.279C105.411 26.3432 106.661 26.579 108.029 27.0506C109.396 27.475 110.67 28.0646 111.849 28.8191C112.98 29.6209 113.876 30.7291 114.537 32.144C115.244 33.5588 115.598 35.233 115.598 37.1666V46.7166C115.598 47.8013 115.268 48.7681 114.607 49.617C113.994 50.4659 112.839 50.8903 111.141 50.8903H95.8611C94.1633 50.8903 93.2673 49.782 93.173 47.5655C93.173 45.3489 94.069 44.2407 95.8611 44.2407H107.887L107.816 37.6617C107.816 36.4827 107.439 35.4216 106.684 34.4784C105.977 33.488 104.751 32.9928 103.006 32.9928H94.1633C92.4184 32.9928 91.1686 33.488 90.4141 34.4784C89.7067 35.4216 89.3529 36.4827 89.3529 37.6617V57.6814ZM132.25 66.0289C132.25 68.2926 130.953 69.4244 128.359 69.4244C125.671 69.4244 124.327 68.2926 124.327 66.0289V36.7421C124.327 32.8749 125.483 30.1868 127.793 28.6776C130.104 27.1685 132.769 26.4139 135.787 26.4139H143.852C145.597 26.4139 146.469 27.5222 146.469 29.7388C146.563 31.9553 145.691 33.0636 143.852 33.0636H136.353C134.655 33.0636 133.547 33.3937 133.028 34.054C132.51 34.7142 132.25 35.6338 132.25 36.8129V66.0289ZM160.091 66.0289C160.091 68.2926 158.794 69.4244 156.2 69.4244C153.512 69.4244 152.168 68.2926 152.168 66.0289V36.7421C152.168 32.8749 153.323 30.1868 155.634 28.6776C157.945 27.1685 160.609 26.4139 163.628 26.4139H171.692C173.437 26.4139 174.31 27.5222 174.31 29.7388C174.404 31.9553 173.531 33.0636 171.692 33.0636H164.194C162.496 33.0636 161.388 33.3937 160.869 34.054C160.35 34.7142 160.091 35.6338 160.091 36.8129V66.0289ZM190.973 69C189.511 69 188.12 68.8114 186.799 68.4341C185.479 68.0096 184.205 67.4201 182.979 66.6655V66.7363C180.668 65.2743 179.513 62.5862 179.513 58.6718V55.2055C179.513 53.2719 179.843 51.5977 180.503 50.1829C181.211 48.7209 182.177 47.5655 183.404 46.7166H183.333C184.512 45.9149 185.762 45.3254 187.082 44.9481C188.403 44.5236 189.676 44.3114 190.902 44.3114H206.536V37.7325C206.536 36.5535 206.159 35.4924 205.404 34.5491C204.697 33.5588 203.47 33.0636 201.726 33.0636H193.449C191.657 33.0636 190.407 33.5116 189.7 34.4077C189.039 35.2566 188.709 36.2705 188.709 37.4495V38.0155C188.709 40.4678 187.389 41.694 184.748 41.694C182.107 41.694 180.786 40.4678 180.786 38.0155V37.3788C180.786 35.4452 181.116 33.8182 181.777 32.4977C182.484 31.1772 183.427 30.0689 184.606 29.1728H184.535C185.762 28.3711 187.035 27.7108 188.355 27.1921C189.723 26.6733 191.02 26.4139 192.246 26.4139H202.999C204.178 26.4139 205.428 26.6733 206.748 27.1921C208.116 27.7108 209.389 28.3711 210.568 29.1728H210.497C211.724 30.0689 212.667 31.2479 213.327 32.7099C213.987 34.1247 214.317 35.7753 214.317 37.6617V66.0289C214.317 68.2926 213.021 69.4244 210.427 69.4244C209.908 69.4244 209.413 69.4009 208.941 69.3537C208.517 69.3065 208.116 69.1886 207.739 69C207.408 68.7642 207.125 68.4577 206.89 68.0804C206.701 67.6559 206.607 67.1136 206.607 66.4533L206.536 50.961H192.246C191.209 50.961 190.407 51.079 189.841 51.3148C189.275 51.5506 188.827 51.9278 188.497 52.4466C188.12 53.2483 187.837 53.885 187.648 54.3566C187.507 54.7811 187.436 55.2763 187.436 55.8422V58.6011C187.436 59.8273 187.79 60.7705 188.497 61.4307C189.252 62.0438 190.525 62.3503 192.317 62.3503H200.24C201.985 62.3503 202.857 63.4586 202.857 65.6752C202.857 66.6184 202.645 67.4201 202.221 68.0804C201.796 68.6935 201.136 69 200.24 69H190.973Z"/>
</mask>
<path d="M89.3529 57.6814C89.3529 58.8133 89.7067 59.8744 90.4141 60.8648C91.1686 61.8552 92.4184 62.3503 94.1633 62.3503H103.006C104.751 62.3503 105.977 61.9259 106.684 61.077C107.439 60.181 107.816 59.167 107.816 58.0351V57.257C107.816 55.0404 109.113 53.9322 111.707 53.9322C114.301 53.9322 115.598 55.0404 115.598 57.257V58.1059C115.598 60.0866 115.268 61.7137 114.607 62.987C113.994 64.2604 113.051 65.3686 111.778 66.3118C109.278 68.1039 106.779 69 104.279 69H92.3948C89.8953 69 87.4665 68.1039 85.1085 66.3118C83.9766 65.3686 83.1042 64.1896 82.4911 62.7748C81.878 61.3128 81.5714 59.6386 81.5714 57.7522V37.591C81.5714 33.771 82.7505 30.9414 85.1085 29.1021C86.2875 28.2532 87.4901 27.5929 88.7163 27.1213C89.9896 26.6026 91.2158 26.3432 92.3948 26.3432H104.279C105.411 26.3432 106.661 26.579 108.029 27.0506C109.396 27.475 110.67 28.0646 111.849 28.8191C112.98 29.6209 113.876 30.7291 114.537 32.144C115.244 33.5588 115.598 35.233 115.598 37.1666V46.7166C115.598 47.8013 115.268 48.7681 114.607 49.617C113.994 50.4659 112.839 50.8903 111.141 50.8903H95.8611C94.1633 50.8903 93.2673 49.782 93.173 47.5655C93.173 45.3489 94.069 44.2407 95.8611 44.2407H107.887L107.816 37.6617C107.816 36.4827 107.439 35.4216 106.684 34.4784C105.977 33.488 104.751 32.9928 103.006 32.9928H94.1633C92.4184 32.9928 91.1686 33.488 90.4141 34.4784C89.7067 35.4216 89.3529 36.4827 89.3529 37.6617V57.6814ZM132.25 66.0289C132.25 68.2926 130.953 69.4244 128.359 69.4244C125.671 69.4244 124.327 68.2926 124.327 66.0289V36.7421C124.327 32.8749 125.483 30.1868 127.793 28.6776C130.104 27.1685 132.769 26.4139 135.787 26.4139H143.852C145.597 26.4139 146.469 27.5222 146.469 29.7388C146.563 31.9553 145.691 33.0636 143.852 33.0636H136.353C134.655 33.0636 133.547 33.3937 133.028 34.054C132.51 34.7142 132.25 35.6338 132.25 36.8129V66.0289ZM160.091 66.0289C160.091 68.2926 158.794 69.4244 156.2 69.4244C153.512 69.4244 152.168 68.2926 152.168 66.0289V36.7421C152.168 32.8749 153.323 30.1868 155.634 28.6776C157.945 27.1685 160.609 26.4139 163.628 26.4139H171.692C173.437 26.4139 174.31 27.5222 174.31 29.7388C174.404 31.9553 173.531 33.0636 171.692 33.0636H164.194C162.496 33.0636 161.388 33.3937 160.869 34.054C160.35 34.7142 160.091 35.6338 160.091 36.8129V66.0289ZM190.973 69C189.511 69 188.12 68.8114 186.799 68.4341C185.479 68.0096 184.205 67.4201 182.979 66.6655V66.7363C180.668 65.2743 179.513 62.5862 179.513 58.6718V55.2055C179.513 53.2719 179.843 51.5977 180.503 50.1829C181.211 48.7209 182.177 47.5655 183.404 46.7166H183.333C184.512 45.9149 185.762 45.3254 187.082 44.9481C188.403 44.5236 189.676 44.3114 190.902 44.3114H206.536V37.7325C206.536 36.5535 206.159 35.4924 205.404 34.5491C204.697 33.5588 203.47 33.0636 201.726 33.0636H193.449C191.657 33.0636 190.407 33.5116 189.7 34.4077C189.039 35.2566 188.709 36.2705 188.709 37.4495V38.0155C188.709 40.4678 187.389 41.694 184.748 41.694C182.107 41.694 180.786 40.4678 180.786 38.0155V37.3788C180.786 35.4452 181.116 33.8182 181.777 32.4977C182.484 31.1772 183.427 30.0689 184.606 29.1728H184.535C185.762 28.3711 187.035 27.7108 188.355 27.1921C189.723 26.6733 191.02 26.4139 192.246 26.4139H202.999C204.178 26.4139 205.428 26.6733 206.748 27.1921C208.116 27.7108 209.389 28.3711 210.568 29.1728H210.497C211.724 30.0689 212.667 31.2479 213.327 32.7099C213.987 34.1247 214.317 35.7753 214.317 37.6617V66.0289C214.317 68.2926 213.021 69.4244 210.427 69.4244C209.908 69.4244 209.413 69.4009 208.941 69.3537C208.517 69.3065 208.116 69.1886 207.739 69C207.408 68.7642 207.125 68.4577 206.89 68.0804C206.701 67.6559 206.607 67.1136 206.607 66.4533L206.536 50.961H192.246C191.209 50.961 190.407 51.079 189.841 51.3148C189.275 51.5506 188.827 51.9278 188.497 52.4466C188.12 53.2483 187.837 53.885 187.648 54.3566C187.507 54.7811 187.436 55.2763 187.436 55.8422V58.6011C187.436 59.8273 187.79 60.7705 188.497 61.4307C189.252 62.0438 190.525 62.3503 192.317 62.3503H200.24C201.985 62.3503 202.857 63.4586 202.857 65.6752C202.857 66.6184 202.645 67.4201 202.221 68.0804C201.796 68.6935 201.136 69 200.24 69H190.973Z" fill="#7A00D6"/>
<path d="M90.4141 60.8648L89.6003 61.446L89.6093 61.4586L89.6186 61.4708L90.4141 60.8648ZM106.684 61.077L105.92 60.4329L105.916 60.4368L106.684 61.077ZM114.607 62.987L113.72 62.5267L113.713 62.5399L113.706 62.5532L114.607 62.987ZM111.778 66.3118L112.361 67.1245L112.367 67.12L112.373 67.1154L111.778 66.3118ZM85.1085 66.3118L84.4683 67.0801L84.4855 67.0944L84.5034 67.108L85.1085 66.3118ZM82.4911 62.7748L81.5688 63.1615L81.5735 63.1724L82.4911 62.7748ZM85.1085 29.1021L84.5242 28.2906L84.5086 28.3018L84.4935 28.3136L85.1085 29.1021ZM88.7163 27.1213L89.0753 28.0547L89.0844 28.0512L89.0936 28.0474L88.7163 27.1213ZM108.029 27.0506L107.703 27.996L107.717 28.001L107.732 28.0057L108.029 27.0506ZM111.849 28.8191L112.427 28.0031L112.407 27.9895L112.388 27.9769L111.849 28.8191ZM114.537 32.144L113.631 32.5668L113.636 32.5791L113.642 32.5912L114.537 32.144ZM114.607 49.617L113.818 49.003L113.807 49.0171L113.797 49.0315L114.607 49.617ZM93.173 47.5655H92.173V47.5868L92.1739 47.608L93.173 47.5655ZM107.887 44.2407V45.2407H108.898L108.887 44.2299L107.887 44.2407ZM107.816 37.6617H106.816L106.816 37.6725L107.816 37.6617ZM106.684 34.4784L105.871 35.0596L105.887 35.0818L105.904 35.1031L106.684 34.4784ZM90.4141 34.4784L89.6186 33.8723L89.6141 33.8784L90.4141 34.4784ZM88.3529 57.6814C88.3529 59.0377 88.7814 60.2995 89.6003 61.446L91.2278 60.2836C90.6319 59.4493 90.3529 58.5889 90.3529 57.6814H88.3529ZM89.6186 61.4708C90.6305 62.799 92.2393 63.3503 94.1633 63.3503V61.3503C92.5975 61.3503 91.7067 60.9114 91.2095 60.2587L89.6186 61.4708ZM94.1633 63.3503H103.006V61.3503H94.1633V63.3503ZM103.006 63.3503C104.876 63.3503 106.468 62.8991 107.453 61.7172L105.916 60.4368C105.486 60.9527 104.625 61.3503 103.006 61.3503V63.3503ZM107.449 61.7211C108.35 60.6517 108.816 59.4115 108.816 58.0351H106.816C106.816 58.9225 106.528 59.7102 105.92 60.4329L107.449 61.7211ZM108.816 58.0351V57.257H106.816V58.0351H108.816ZM108.816 57.257C108.816 56.3475 109.075 55.8344 109.439 55.5236C109.832 55.1871 110.529 54.9322 111.707 54.9322V52.9322C110.291 52.9322 109.043 53.2313 108.139 54.0031C107.206 54.8007 106.816 55.9499 106.816 57.257H108.816ZM111.707 54.9322C112.885 54.9322 113.582 55.1871 113.976 55.5236C114.339 55.8344 114.598 56.3475 114.598 57.257H116.598C116.598 55.9499 116.208 54.8007 115.275 54.0031C114.372 53.2313 113.123 52.9322 111.707 52.9322V54.9322ZM114.598 57.257V58.1059H116.598V57.257H114.598ZM114.598 58.1059C114.598 59.9842 114.284 61.4393 113.72 62.5267L115.495 63.4473C116.252 61.9881 116.598 60.1891 116.598 58.1059H114.598ZM113.706 62.5532C113.172 63.6633 112.342 64.6498 111.183 65.5083L112.373 67.1154C113.761 66.0875 114.817 64.8574 115.508 63.4208L113.706 62.5532ZM111.195 65.4991C108.826 67.1979 106.526 68 104.279 68V70C107.032 70 109.731 69.01 112.361 67.1245L111.195 65.4991ZM104.279 68H92.3948V70H104.279V68ZM92.3948 68C90.1522 68 87.9309 67.2008 85.7136 65.5157L84.5034 67.108C87.0022 69.0071 89.6383 70 92.3948 70V68ZM85.7487 65.5436C84.7426 64.7052 83.9625 63.6554 83.4086 62.3772L81.5735 63.1724C82.2458 64.7239 83.2106 66.032 84.4683 67.0801L85.7487 65.5436ZM83.4133 62.3881C82.8603 61.0695 82.5714 59.5306 82.5714 57.7522H80.5714C80.5714 59.7467 80.8957 61.5561 81.5689 63.1615L83.4133 62.3881ZM82.5714 57.7522V37.591H80.5714V57.7522H82.5714ZM82.5714 37.591C82.5714 33.9857 83.6736 31.4895 85.7235 29.8906L84.4935 28.3136C81.8273 30.3932 80.5714 33.5563 80.5714 37.591H82.5714ZM85.6928 29.9136C86.8095 29.1096 87.937 28.4925 89.0753 28.0547L88.3573 26.188C87.0432 26.6934 85.7655 27.3968 84.5242 28.2906L85.6928 29.9136ZM89.0936 28.0474C90.2667 27.5695 91.3648 27.3432 92.3948 27.3432V25.3432C91.0668 25.3432 89.7125 25.6357 88.339 26.1953L89.0936 28.0474ZM92.3948 27.3432H104.279V25.3432H92.3948V27.3432ZM104.279 27.3432C105.274 27.3432 106.412 27.551 107.703 27.996L108.355 26.1052C106.91 25.607 105.548 25.3432 104.279 25.3432V27.3432ZM107.732 28.0057C109.016 28.4042 110.208 28.9562 111.31 29.6614L112.388 27.9769C111.131 27.1729 109.776 26.5459 108.325 26.0955L107.732 28.0057ZM111.271 29.6351C112.244 30.3244 113.034 31.2892 113.631 32.5668L115.443 31.7211C114.719 30.1691 113.717 28.9173 112.427 28.0031L111.271 29.6351ZM113.642 32.5912C114.267 33.8396 114.598 35.3542 114.598 37.1666H116.598C116.598 35.1117 116.222 33.2779 115.431 31.6967L113.642 32.5912ZM114.598 37.1666V46.7166H116.598V37.1666H114.598ZM114.598 46.7166C114.598 47.581 114.341 48.3313 113.818 49.003L115.397 50.2309C116.195 49.2049 116.598 48.0216 116.598 46.7166H114.598ZM113.797 49.0315C113.465 49.4912 112.719 49.8903 111.141 49.8903V51.8903C112.959 51.8903 114.524 51.4405 115.418 50.2025L113.797 49.0315ZM111.141 49.8903H95.8611V51.8903H111.141V49.8903ZM95.8611 49.8903C95.25 49.8903 94.9145 49.7039 94.6934 49.4304C94.4364 49.1126 94.2148 48.5286 94.1721 47.523L92.1739 47.608C92.2254 48.8189 92.499 49.8973 93.1381 50.6878C93.813 51.5225 94.7745 51.8903 95.8611 51.8903V49.8903ZM94.173 47.5655C94.173 46.5659 94.3792 46.0016 94.6226 45.7006C94.8332 45.4402 95.1821 45.2407 95.8611 45.2407V43.2407C94.748 43.2407 93.7529 43.5953 93.0674 44.4431C92.4147 45.2504 92.173 46.3485 92.173 47.5655H94.173ZM95.8611 45.2407H107.887V43.2407H95.8611V45.2407ZM108.887 44.2299L108.816 37.651L106.816 37.6725L106.887 44.2514L108.887 44.2299ZM108.816 37.6617C108.816 36.2497 108.358 34.9695 107.465 33.8537L105.904 35.1031C106.52 35.8737 106.816 36.7158 106.816 37.6617H108.816ZM107.498 33.8972C106.531 32.5425 104.925 31.9928 103.006 31.9928V33.9928C104.577 33.9928 105.424 34.4336 105.871 35.0596L107.498 33.8972ZM103.006 31.9928H94.1633V33.9928H103.006V31.9928ZM94.1633 31.9928C92.2393 31.9928 90.6305 32.5442 89.6186 33.8724L91.2095 35.0844C91.7067 34.4318 92.5975 33.9928 94.1633 33.9928V31.9928ZM89.6141 33.8784C88.7768 34.9947 88.3529 36.2664 88.3529 37.6617H90.3529C90.3529 36.6991 90.6365 35.8485 91.2141 35.0784L89.6141 33.8784ZM88.3529 37.6617V57.6814H90.3529V37.6617H88.3529ZM146.469 29.7388H145.469V29.76L145.47 29.7813L146.469 29.7388ZM133.028 34.054L133.815 34.6718L133.028 34.054ZM131.25 66.0289C131.25 66.9685 130.987 67.5015 130.62 67.8221C130.227 68.1654 129.533 68.4244 128.359 68.4244V70.4244C129.78 70.4244 131.031 70.1175 131.935 69.329C132.865 68.5177 133.25 67.353 133.25 66.0289H131.25ZM128.359 68.4244C127.132 68.4244 126.397 68.1624 125.979 67.8106C125.595 67.4867 125.327 66.9572 125.327 66.0289H123.327C123.327 67.3643 123.732 68.5326 124.691 69.3405C125.618 70.1206 126.899 70.4244 128.359 70.4244V68.4244ZM125.327 66.0289V36.7421H123.327V66.0289H125.327ZM125.327 36.7421C125.327 33.0647 126.417 30.771 128.34 29.5149L127.247 27.8404C124.548 29.6026 123.327 32.6852 123.327 36.7421H125.327ZM128.34 29.5149C130.473 28.1218 132.944 27.4139 135.787 27.4139V25.4139C132.594 25.4139 129.735 26.2152 127.247 27.8404L128.34 29.5149ZM135.787 27.4139H143.852V25.4139H135.787V27.4139ZM143.852 27.4139C144.498 27.4139 144.827 27.6071 145.029 27.8637C145.267 28.1659 145.469 28.7345 145.469 29.7388H147.469C147.469 28.5264 147.235 27.4327 146.6 26.6266C145.93 25.7749 144.95 25.4139 143.852 25.4139V27.4139ZM145.47 29.7813C145.513 30.7805 145.324 31.3291 145.1 31.6138C144.908 31.8576 144.566 32.0636 143.852 32.0636V34.0636C144.977 34.0636 145.991 33.7155 146.671 32.8509C147.32 32.0274 147.52 30.9136 147.468 29.6962L145.47 29.7813ZM143.852 32.0636H136.353V34.0636H143.852V32.0636ZM136.353 32.0636C135.448 32.0636 134.642 32.1505 133.963 32.3528C133.284 32.5552 132.669 32.8924 132.242 33.4361L133.815 34.6718C133.906 34.5552 134.105 34.3973 134.534 34.2696C134.963 34.1417 135.56 34.0636 136.353 34.0636V32.0636ZM132.242 33.4361C131.538 34.3316 131.25 35.4985 131.25 36.8129H133.25C133.25 35.7691 133.481 35.0969 133.815 34.6718L132.242 33.4361ZM131.25 36.8129V66.0289H133.25V36.8129H131.25ZM174.31 29.7388H173.31V29.76L173.31 29.7813L174.31 29.7388ZM160.869 34.054L161.655 34.6718L160.869 34.054ZM159.091 66.0289C159.091 66.9685 158.828 67.5015 158.46 67.8221C158.067 68.1654 157.374 68.4244 156.2 68.4244V70.4244C157.62 70.4244 158.872 70.1175 159.775 69.329C160.705 68.5177 161.091 67.353 161.091 66.0289H159.091ZM156.2 68.4244C154.972 68.4244 154.237 68.1624 153.82 67.8106C153.435 67.4867 153.168 66.9572 153.168 66.0289H151.168C151.168 67.3643 151.572 68.5326 152.532 69.3405C153.458 70.1206 154.74 70.4244 156.2 70.4244V68.4244ZM153.168 66.0289V36.7421H151.168V66.0289H153.168ZM153.168 36.7421C153.168 33.0647 154.257 30.771 156.181 29.5149L155.087 27.8404C152.389 29.6026 151.168 32.6852 151.168 36.7421H153.168ZM156.181 29.5149C158.314 28.1218 160.785 27.4139 163.628 27.4139V25.4139C160.434 25.4139 157.576 26.2152 155.087 27.8404L156.181 29.5149ZM163.628 27.4139H171.692V25.4139H163.628V27.4139ZM171.692 27.4139C172.338 27.4139 172.667 27.6071 172.869 27.8637C173.107 28.1659 173.31 28.7345 173.31 29.7388H175.31C175.31 28.5264 175.076 27.4327 174.441 26.6266C173.77 25.7749 172.791 25.4139 171.692 25.4139V27.4139ZM173.31 29.7813C173.353 30.7805 173.164 31.3291 172.94 31.6138C172.748 31.8576 172.406 32.0636 171.692 32.0636V34.0636C172.817 34.0636 173.831 33.7155 174.512 32.8509C175.16 32.0274 175.36 30.9136 175.309 29.6962L173.31 29.7813ZM171.692 32.0636H164.194V34.0636H171.692V32.0636ZM164.194 32.0636C163.289 32.0636 162.483 32.1505 161.804 32.3528C161.124 32.5552 160.51 32.8924 160.082 33.4361L161.655 34.6718C161.747 34.5552 161.946 34.3973 162.375 34.2696C162.804 34.1417 163.401 34.0636 164.194 34.0636V32.0636ZM160.082 33.4361C159.379 34.3316 159.091 35.4985 159.091 36.8129H161.091C161.091 35.7691 161.321 35.0969 161.655 34.6718L160.082 33.4361ZM159.091 36.8129V66.0289H161.091V36.8129H159.091ZM186.799 68.4341L186.493 69.3861L186.509 69.3911L186.524 69.3956L186.799 68.4341ZM182.979 66.6656L183.503 65.8139L181.979 64.876V66.6656H182.979ZM182.979 66.7363L182.445 67.5814L183.979 68.5523V66.7363H182.979ZM180.503 50.1829L179.603 49.7473L179.597 49.76L180.503 50.1829ZM183.404 46.7166L183.973 47.5388L186.605 45.7166H183.404V46.7166ZM183.333 46.7166L182.771 45.8897L180.084 47.7166H183.333V46.7166ZM187.082 44.9481L187.357 45.9096L187.373 45.9051L187.388 45.9001L187.082 44.9481ZM206.536 44.3114V45.3114H207.536V44.3114H206.536ZM205.404 34.5491L204.59 35.1304L204.606 35.1526L204.623 35.1738L205.404 34.5491ZM189.7 34.4077L188.915 33.788L188.91 33.7937L189.7 34.4077ZM181.777 32.4977L180.895 32.0254L180.888 32.0378L180.882 32.0504L181.777 32.4977ZM184.606 29.1728L185.211 29.969L187.575 28.1728H184.606V29.1728ZM184.535 29.1728L183.988 28.3359L181.179 30.1728H184.535V29.1728ZM188.355 27.1921L188.001 26.257L187.99 26.2613L188.355 27.1921ZM206.748 27.1921L206.382 28.1229L206.393 28.1271L206.748 27.1921ZM210.568 29.1728V30.1728H213.817L211.13 28.3459L210.568 29.1728ZM210.497 29.1728V28.1728H207.434L209.907 29.9802L210.497 29.1728ZM213.327 32.7099L212.416 33.1215L212.421 33.1328L213.327 32.7099ZM208.941 69.3537L208.831 70.3476L208.842 70.3487L208.941 69.3537ZM207.739 69L207.157 69.8137L207.221 69.8593L207.291 69.8944L207.739 69ZM206.89 68.0804L205.976 68.4865L206.004 68.5508L206.042 68.6104L206.89 68.0804ZM206.607 66.4533H207.607L207.607 66.4488L206.607 66.4533ZM206.536 50.961L207.536 50.9565L207.531 49.961H206.536V50.961ZM189.841 51.3148L190.226 52.2378V52.2378L189.841 51.3148ZM188.497 52.4466L187.653 51.9097L187.619 51.9633L187.592 52.0208L188.497 52.4466ZM187.648 54.3566L186.72 53.9852L186.709 54.0125L186.699 54.0404L187.648 54.3566ZM188.497 61.4307L187.815 62.1618L187.84 62.1852L187.866 62.2068L188.497 61.4307ZM202.221 68.0804L203.043 68.6496L203.053 68.6355L203.062 68.6211L202.221 68.0804ZM190.973 68C189.598 68 188.299 67.8227 187.074 67.4725L186.524 69.3956C187.94 69.8 189.424 70 190.973 70V68ZM187.105 67.482C185.864 67.0831 184.664 66.528 183.503 65.8139L182.455 67.5172C183.747 68.3123 185.093 68.9362 186.493 69.3861L187.105 67.482ZM181.979 66.6656V66.7363H183.979V66.6656H181.979ZM183.514 65.8912C181.607 64.6847 180.513 62.4044 180.513 58.6718H178.513C178.513 62.7679 179.73 65.864 182.445 67.5814L183.514 65.8912ZM180.513 58.6718V55.2055H178.513V58.6718H180.513ZM180.513 55.2055C180.513 53.3841 180.824 51.8605 181.409 50.6058L179.597 49.76C178.862 51.3349 178.513 53.1598 178.513 55.2055H180.513ZM181.403 50.6185C182.043 49.2975 182.901 48.2809 183.973 47.5388L182.834 45.8944C181.454 46.8501 180.379 48.1443 179.603 49.7473L181.403 50.6185ZM183.404 45.7166H183.333V47.7166H183.404V45.7166ZM183.895 47.5435C184.99 46.7994 186.143 46.2565 187.357 45.9096L186.807 43.9865C185.381 44.3942 184.034 45.0303 182.771 45.8897L183.895 47.5435ZM187.388 45.9001C188.623 45.5033 189.792 45.3114 190.902 45.3114V43.3114C189.56 43.3114 188.183 43.5439 186.776 43.996L187.388 45.9001ZM190.902 45.3114H206.536V43.3114H190.902V45.3114ZM207.536 44.3114V37.7325H205.536V44.3114H207.536ZM207.536 37.7325C207.536 36.3204 207.078 35.0403 206.185 33.9244L204.623 35.1738C205.24 35.9445 205.536 36.7865 205.536 37.7325H207.536ZM206.218 33.9679C205.25 32.6132 203.644 32.0636 201.726 32.0636V34.0636C203.297 34.0636 204.143 34.5043 204.59 35.1304L206.218 33.9679ZM201.726 32.0636H193.449V34.0636H201.726V32.0636ZM193.449 32.0636C191.526 32.0636 189.899 32.5413 188.915 33.788L190.484 35.0273C190.915 34.482 191.787 34.0636 193.449 34.0636V32.0636ZM188.91 33.7937C188.1 34.8353 187.709 36.0709 187.709 37.4495H189.709C189.709 36.4702 189.979 35.6778 190.489 35.0216L188.91 33.7937ZM187.709 37.4495V38.0155H189.709V37.4495H187.709ZM187.709 38.0155C187.709 39.0677 187.429 39.6785 187.038 40.0416C186.633 40.4176 185.932 40.694 184.748 40.694V42.694C186.205 42.694 187.484 42.3573 188.399 41.5071C189.329 40.644 189.709 39.4156 189.709 38.0155H187.709ZM184.748 40.694C183.564 40.694 182.862 40.4176 182.457 40.0416C182.066 39.6785 181.786 39.0677 181.786 38.0155H179.786C179.786 39.4156 180.167 40.644 181.096 41.5071C182.012 42.3573 183.291 42.694 184.748 42.694V40.694ZM181.786 38.0155V37.3788H179.786V38.0155H181.786ZM181.786 37.3788C181.786 35.5542 182.098 34.0903 182.671 32.9449L180.882 32.0504C180.134 33.546 179.786 35.3362 179.786 37.3788H181.786ZM182.658 32.9699C183.298 31.7744 184.148 30.7771 185.211 29.969L184.001 28.3767C182.706 29.3606 181.67 30.5799 180.895 32.0254L182.658 32.9699ZM184.606 28.1728H184.535V30.1728H184.606V28.1728ZM185.083 30.0098C186.254 29.2442 187.466 28.6158 188.721 28.1228L187.99 26.2613C186.604 26.8059 185.27 27.498 183.988 28.3359L185.083 30.0098ZM188.71 28.1271C189.986 27.6432 191.162 27.4139 192.246 27.4139V25.4139C190.878 25.4139 189.46 25.7034 188.001 26.2571L188.71 28.1271ZM192.246 27.4139H202.999V25.4139H192.246V27.4139ZM202.999 27.4139C204.03 27.4139 205.155 27.6408 206.382 28.1228L207.114 26.2613C205.7 25.7059 204.326 25.4139 202.999 25.4139V27.4139ZM206.393 28.1271C207.69 28.6188 208.893 29.2432 210.006 29.9998L211.13 28.3459C209.885 27.499 208.542 26.8029 207.103 26.2571L206.393 28.1271ZM210.568 28.1728H210.497V30.1728H210.568V28.1728ZM209.907 29.9802C210.986 30.7685 211.822 31.8078 212.416 33.1215L214.238 32.2983C213.511 30.688 212.461 29.3692 211.087 28.3654L209.907 29.9802ZM212.421 33.1328C213.008 34.3905 213.317 35.8915 213.317 37.6617H215.317C215.317 35.6591 214.967 33.8589 214.233 32.287L212.421 33.1328ZM213.317 37.6617V66.0289H215.317V37.6617H213.317ZM213.317 66.0289C213.317 66.9685 213.055 67.5015 212.687 67.8221C212.294 68.1654 211.6 68.4244 210.427 68.4244V70.4244C211.847 70.4244 213.099 70.1175 214.002 69.329C214.932 68.5177 215.317 67.353 215.317 66.0289H213.317ZM210.427 68.4244C209.938 68.4244 209.476 68.4022 209.041 68.3587L208.842 70.3487C209.349 70.3995 209.878 70.4244 210.427 70.4244V68.4244ZM209.052 68.3598C208.743 68.3255 208.456 68.2408 208.186 68.1056L207.291 69.8944C207.775 70.1365 208.29 70.2876 208.831 70.3476L209.052 68.3598ZM208.32 68.1863C208.106 68.0337 207.911 67.8273 207.738 67.5504L206.042 68.6104C206.34 69.088 206.711 69.4947 207.157 69.8137L208.32 68.1863ZM207.803 67.6742C207.69 67.4196 207.607 67.0283 207.607 66.4533H205.607C205.607 67.1988 205.712 67.8922 205.976 68.4865L207.803 67.6742ZM207.607 66.4488L207.536 50.9565L205.536 50.9656L205.607 66.4579L207.607 66.4488ZM206.536 49.961H192.246V51.961H206.536V49.961ZM192.246 49.961C191.156 49.961 190.2 50.0817 189.456 50.3917L190.226 52.2378C190.614 52.0762 191.262 51.961 192.246 51.961V49.961ZM189.456 50.3917C188.701 50.7065 188.093 51.2188 187.653 51.9097L189.341 52.9835C189.561 52.6369 189.849 52.3947 190.226 52.2378L189.456 50.3917ZM187.592 52.0208C187.212 52.8294 186.919 53.4866 186.72 53.9852L188.577 54.728C188.754 54.2834 189.028 53.6673 189.402 52.8724L187.592 52.0208ZM186.699 54.0404C186.516 54.5897 186.436 55.1959 186.436 55.8422H188.436C188.436 55.3566 188.497 54.9724 188.597 54.6728L186.699 54.0404ZM186.436 55.8422V58.6011H188.436V55.8422H186.436ZM186.436 58.6011C186.436 60.0257 186.853 61.2647 187.815 62.1618L189.179 60.6997C188.726 60.2763 188.436 59.6288 188.436 58.6011H186.436ZM187.866 62.2068C188.897 63.0444 190.465 63.3503 192.317 63.3503V61.3503C190.584 61.3503 189.606 61.0432 189.128 60.6546L187.866 62.2068ZM192.317 63.3503H200.24V61.3503H192.317V63.3503ZM200.24 63.3503C200.886 63.3503 201.215 63.5435 201.417 63.8001C201.655 64.1023 201.857 64.671 201.857 65.6752H203.857C203.857 64.4628 203.623 63.3691 202.989 62.563C202.318 61.7113 201.339 61.3503 200.24 61.3503V63.3503ZM201.857 65.6752C201.857 66.4657 201.681 67.0707 201.38 67.5396L203.062 68.6211C203.609 67.7696 203.857 66.771 203.857 65.6752H201.857ZM201.399 67.5112C201.2 67.7978 200.883 68 200.24 68V70C201.389 70 202.393 69.5891 203.043 68.6496L201.399 67.5112ZM200.24 68H190.973V70H200.24V68Z" fill="black" fill-opacity="0.54" mask="url(#path-1-outside-1_86_162)"/>
<path d="M45.8939 23.3297C42.799 24.7957 44.5675 29.9617 44.5675 29.9617C44.5675 29.9617 60.0421 64.8901 62.6949 66.6586C64.8498 68.0952 69.9043 68.208 71.9796 66.6586C73.6513 65.4104 74.1902 61.7951 74.1902 61.7951C74.1902 61.7951 71.3529 61.7951 69.3268 60.9109C67.3007 60.0266 65.3476 56.0474 65.3476 56.0474L51.6416 27.3089C51.6416 27.3089 48.9888 21.8637 45.8939 23.3297Z" fill="#7A00D6" stroke="black" stroke-opacity="0.54"/>
<path d="M74.1878 61.7952C74.1878 61.7952 72.4682 62.2831 69.3243 60.911C66.1805 59.5389 62.8154 50.742 62.8154 50.742C62.8154 50.742 64.8501 53.1265 64.9031 50.742C65.3452 30.846 65.7873 14.045 65.7873 14.045C65.7873 14.045 67.0647 9.72681 70.6017 9.72681C74.1388 9.72681 75.5142 14.045 75.5142 14.045L74.1878 61.7952Z" fill="#CDB3F4" stroke="black" stroke-opacity="0.54"/>
<path d="M22.3592 11.4107C22.9738 10.2869 24.1379 9.62378 25.4188 9.62378H38.6747C39.6161 9.62378 40.5151 9.99428 41.1655 10.6748C43.6131 13.2353 49.5145 19.6613 48.1037 20.6771C46.1766 22.0646 42.5484 21.3318 40.9436 20.9088C40.4133 20.769 39.9435 20.4752 39.5558 20.0875L37.2022 17.7339C36.5389 17.0705 35.6392 16.6979 34.7011 16.6979H29.1239C27.7549 16.6979 26.5175 17.4701 25.9419 18.7122C22.1183 26.962 8.08713 57.7782 11.4069 58.7004C15.2409 59.7654 34.3671 24.9322 44.125 30.8461C52.1496 35.7095 19.6362 75.9472 2.12216 66.2166C-4.9537 62.2854 17.3318 20.6029 22.3592 11.4107Z" fill="#7A00D6"/>
<path d="M22.7979 11.6506C23.3213 10.6936 24.3132 10.1238 25.4188 10.1238H38.6747C39.4846 10.1238 40.2514 10.442 40.8041 11.0203L41.1655 10.6748L40.8041 11.0203C42.0255 12.298 44.0986 14.53 45.6876 16.5631C46.4853 17.5838 47.1419 18.5304 47.5119 19.2696C47.6991 19.6435 47.7928 19.9255 47.8141 20.1163C47.8244 20.2083 47.815 20.2547 47.8097 20.2708C47.8094 20.2717 47.8091 20.2725 47.8089 20.2733C46.9869 20.8635 45.7433 21.0336 44.426 20.9724C43.1273 20.9121 41.8573 20.6326 41.071 20.4253C40.6386 20.3113 40.2442 20.0688 39.9094 19.734L37.5557 17.3803C36.7986 16.6232 35.7718 16.1979 34.7011 16.1979H29.1239C27.5648 16.1979 26.1477 17.079 25.4882 18.502C23.5757 22.6285 19.1076 32.4043 15.5319 41.2671C13.7452 45.6957 12.1751 49.9115 11.2594 53.0847C10.803 54.6663 10.5005 56.0177 10.423 57.0171C10.3846 57.5125 10.3975 57.9637 10.4999 58.3259C10.6041 58.6946 10.832 59.0596 11.2731 59.1821C11.7051 59.3022 12.1521 59.1506 12.5409 58.9357C12.9449 58.7124 13.3857 58.365 13.8524 57.9342C14.7885 57.0702 15.9066 55.7971 17.1507 54.2833C18.2761 52.9138 19.5176 51.3312 20.8354 49.6513C20.9775 49.4701 21.1206 49.2878 21.2644 49.1045C22.7438 47.2195 24.3141 45.2271 25.9298 43.2736C29.1673 39.3589 32.5609 35.6324 35.7352 33.2533C38.9502 30.8436 41.7208 29.9737 43.8658 31.2737C44.6298 31.7367 44.9915 32.6517 44.845 34.1114C44.6987 35.5687 44.0496 37.4372 42.9648 39.5658C40.8004 43.8133 36.9756 48.9541 32.3445 53.6531C27.7128 58.3526 22.3059 62.5785 16.9932 65.0248C11.6715 67.4752 6.54141 68.0999 2.36499 65.7796C1.71802 65.4201 1.30976 64.5761 1.25362 63.0911C1.19832 61.6284 1.49448 59.6962 2.07662 57.4108C3.23889 52.8478 5.50467 47.0123 8.1595 40.9881C13.4659 28.9473 20.2857 16.2439 22.7979 11.6506Z" stroke="black" stroke-opacity="0.54"/>
</svg>
