<svg width="367" height="251" viewBox="0 0 367 251" fill="none" xmlns="http://www.w3.org/2000/svg">
<g opacity="0.4">
<path d="M221.207 67.1565C206.043 74.3396 214.708 99.6515 214.708 99.6515C214.708 99.6515 290.531 270.792 303.53 279.457C314.089 286.496 338.855 287.049 349.024 279.457C357.215 273.341 359.856 255.627 359.856 255.627C359.856 255.627 345.953 255.627 336.025 251.295C326.098 246.962 316.528 227.465 316.528 227.465L249.37 86.6535C249.37 86.6535 236.372 59.9734 221.207 67.1565Z" fill="#7A00D6" stroke="#CDB3F4"/>
<path d="M359.85 255.627C359.85 255.627 351.424 258.017 336.02 251.294C320.615 244.571 304.127 201.469 304.127 201.469C304.127 201.469 314.096 213.153 314.356 201.469C316.522 103.984 318.689 21.6633 318.689 21.6633C318.689 21.6633 324.948 0.505127 342.279 0.505127C359.61 0.505127 366.349 21.6633 366.349 21.6633L359.85 255.627Z" fill="#CDB3F4" stroke="#CDB3F4"/>
<path d="M109.234 3.71749C110.363 1.67376 112.461 0.5 114.817 0.5H190.145C191.87 0.5 193.521 1.18719 194.72 2.4202C199.22 7.04683 210.344 18.6902 219.392 29.8538C223.92 35.4394 227.909 40.883 230.293 45.2573C231.487 47.4492 232.257 49.3351 232.507 50.8154C232.758 52.2992 232.47 53.234 231.75 53.7525C226.622 57.4445 218.89 58.0135 211.606 57.4005C204.349 56.7898 197.668 55.0186 194.746 54.1592C193.796 53.8798 192.949 53.3531 192.237 52.6415L175.947 36.3516C174.544 34.9492 172.642 34.1613 170.659 34.1613H132.479C129.596 34.1613 127.007 35.7098 125.778 38.3432C119.251 52.3218 96.4392 101.611 77.4122 148.007C67.8998 171.202 59.3274 193.689 54.2102 210.682C51.653 219.174 49.9501 226.322 49.4311 231.51C49.1721 234.099 49.2031 236.242 49.5942 237.833C49.9856 239.425 50.7718 240.576 52.098 240.944C53.4645 241.324 55.079 240.885 56.8447 239.909C58.6257 238.925 60.6529 237.342 62.8921 235.276C67.373 231.14 72.78 224.991 78.869 217.582C84.3687 210.89 90.4377 203.154 96.8981 194.919C97.5938 194.032 98.294 193.139 98.9985 192.242C106.247 183.005 113.956 173.226 121.89 163.633C137.764 144.439 154.516 126.024 170.268 114.218C186.061 102.382 200.628 97.3458 212.287 104.411C216.963 107.245 218.766 112.687 218.014 120.178C217.263 127.667 213.961 137.073 208.599 147.594C197.881 168.626 179.006 193.974 156.212 217.101C133.418 240.229 106.736 261.104 80.4194 273.222C54.0944 285.343 28.2327 288.66 6.98061 276.853C2.69014 274.47 0.625333 269.03 0.505528 260.982C0.386151 252.962 2.20452 242.529 5.47322 230.433C12.0084 206.249 24.3028 175.552 38.2705 144.505C66.2026 82.4194 100.786 19.0232 109.234 3.71749Z" fill="#7A00D6" stroke="#CDB3F4"/>
</g>
</svg>
