<svg width="322" height="184" viewBox="0 0 322 184" fill="none" xmlns="http://www.w3.org/2000/svg">
<rect x="130.999" y="3" width="29" height="51" rx="14.5" stroke="black" stroke-width="4"/>
<g filter="url(#filter0_d_110_119)">
<rect y="79.835" width="291.905" height="103.45" rx="25.8625" transform="rotate(-15.8724 0 79.835)" fill="#FFB400" shape-rendering="crispEdges"/>
<rect x="2.39623" y="81.1702" width="288.025" height="99.5707" rx="23.9228" transform="rotate(-15.8724 2.39623 81.1702)" stroke="black" stroke-width="3.87938" shape-rendering="crispEdges"/>
<path d="M77.4862 134.503L76.8405 134.686C73.7874 135.554 70.6086 133.783 69.7405 130.73L65.1759 114.676L60.8228 99.3668C59.9547 96.3138 61.726 93.135 64.7791 92.2669L66.5031 91.7767C68.3671 91.2467 70.3727 91.6918 71.8375 92.9605L86.8261 105.942C87.9052 106.877 89.5392 105.836 89.1488 104.463L87.0799 97.1871L85.6893 92.2964C84.8212 89.2433 86.5925 86.0645 89.6456 85.1964L90.2913 85.0128C93.3444 84.1447 96.5231 85.916 97.3912 88.9691L101.744 104.279L106.309 120.332C107.177 123.385 105.406 126.564 102.353 127.432L100.322 128.01C98.6291 128.491 96.8115 128.173 95.3962 127.127C92.9799 125.342 89.1337 122.454 86.5283 120.268C84.7172 118.749 82.5985 116.807 80.8084 115.123C79.733 114.112 77.9648 115.172 78.3685 116.592L79.8949 121.96L81.4424 127.403C82.3105 130.456 80.5393 133.635 77.4862 134.503Z" fill="white" stroke="white" stroke-width="1.52072"/>
<path d="M111.004 122.165L104.299 98.5858C103.651 96.3039 104.021 94.0484 107.356 93.1001C110.691 92.1518 112.193 93.875 112.842 96.1568L119.546 119.736C120.195 122.018 119.825 124.274 116.489 125.222C113.154 126.17 111.653 124.447 111.004 122.165ZM100.83 87.0508C100.131 84.5934 101.555 82.0384 104.012 81.3397C106.47 80.641 109.025 82.0647 109.723 84.5221C110.422 86.9795 108.998 89.5344 106.541 90.2331C104.084 90.9319 101.529 89.5082 100.83 87.0508ZM123.961 118.734L113.913 83.3941C113.114 80.5856 114.395 78.6404 116.97 77.9084C119.544 77.1764 121.657 78.1567 122.455 80.9651L125.749 92.55L125.866 92.5167C126.781 89.2843 129.257 86.8728 133.06 85.7914C142.071 83.2294 148.404 89.7129 150.734 97.9043C153.878 108.963 149.098 115.95 141.96 117.98C137.806 119.161 133.855 118.387 131.419 115.159L131.302 115.192L131.684 116.538C132.433 119.171 131.487 120.958 128.971 121.673C126.338 122.422 124.71 121.367 123.961 118.734ZM142.274 100.626C141.143 96.6471 138.234 91.5298 132.792 93.077C127.568 94.4991 127.394 100.114 128.642 104.502C130.022 109.358 133.159 113.273 138.132 111.859C142.663 110.444 143.705 105.658 142.274 100.626ZM157.206 109.028L150.501 85.4488C149.852 83.167 150.223 80.9115 153.558 79.9632C156.893 79.0149 158.395 80.7381 159.044 83.0199L165.748 106.599C166.397 108.881 166.026 111.137 162.691 112.085C159.356 113.033 157.855 111.31 157.206 109.028ZM147.032 73.9139C146.333 71.4565 147.757 68.9015 150.214 68.2028C152.671 67.5041 155.226 68.9277 155.925 71.3851C156.624 73.8425 155.2 76.3975 152.743 77.0962C150.285 77.795 147.73 76.3713 147.032 73.9139ZM170.608 104.269C169.859 101.636 171.408 98.8556 174.041 98.1069C176.674 97.3583 179.455 98.9076 180.203 101.541C180.952 104.173 179.402 106.954 176.77 107.702C174.137 108.451 171.356 106.902 170.608 104.269ZM185.055 101.109L178.351 77.5302C177.619 74.9557 178.307 72.9262 180.998 72.161C183.689 71.3957 185.342 72.7597 186.074 75.3342L186.39 76.4458L186.507 76.4126C188.008 72.571 190.477 69.4659 195.333 68.085C200.482 66.621 206.831 67.5984 209.293 76.2578L214.017 92.8744C214.666 95.1563 214.296 97.4118 210.961 98.3601C207.626 99.3084 206.124 97.5852 205.475 95.3034L201.233 80.3834C200.251 76.9314 197.856 74.9565 194.17 76.0045C191.186 76.853 188.374 80.3086 189.588 84.5798L193.598 98.6805C194.246 100.962 193.876 103.218 190.541 104.166C187.206 105.114 185.704 103.391 185.055 101.109ZM221.776 77.8306C222.891 81.7508 226.053 85.5315 230.909 84.1506C234.712 83.0693 236.922 79.7216 235.192 73.6366C233.429 67.4346 230.306 65.3501 226.328 66.4814C220.828 68.0452 220.279 72.5648 221.776 77.8306ZM240.089 59.7226L247.143 84.5306C250.071 94.8283 245.1 101.364 236.206 103.893C229.712 105.74 222.502 104.628 221.321 100.473C220.722 98.367 221.928 96.38 223.8 95.8476C227.369 94.8328 229.319 99.0213 234.117 97.6572C239.324 96.1765 240.682 92.9447 238.769 86.2161L238.27 84.4608L238.153 84.4941C237.264 87.15 234.461 89.9706 231.068 90.9355C222.057 93.4975 215.713 88.9775 213.317 80.5521C210.173 69.4938 214.894 62.523 222.091 60.4767C226.245 59.2956 230.07 60.2947 232.549 63.0051L232.666 62.9718L232.366 61.9186C231.618 59.2857 232.564 57.4988 235.08 56.7835C237.713 56.0348 239.341 57.0897 240.089 59.7226Z" fill="white"/>
</g>
<defs>
<filter id="filter0_d_110_119" x="0" y="0" width="327.172" height="189.686" filterUnits="userSpaceOnUse" color-interpolation-filters="sRGB">
<feFlood flood-opacity="0" result="BackgroundImageFix"/>
<feColorMatrix in="SourceAlpha" type="matrix" values="0 0 0 0 0 0 0 0 0 0 0 0 0 0 0 0 0 0 127 0" result="hardAlpha"/>
<feOffset dx="12.9313" dy="5.1725"/>
<feGaussianBlur stdDeviation="2.58625"/>
<feComposite in2="hardAlpha" operator="out"/>
<feColorMatrix type="matrix" values="0 0 0 0 1 0 0 0 0 0.705882 0 0 0 0 0 0 0 0 0.4 0"/>
<feBlend mode="normal" in2="BackgroundImageFix" result="effect1_dropShadow_110_119"/>
<feBlend mode="normal" in="SourceGraphic" in2="effect1_dropShadow_110_119" result="shape"/>
</filter>
</defs>
</svg>
